<svg xmlns="http://www.w3.org/2000/svg" viewBox="0 0 1100 640">
  <style>
    @font-face {
      font-family: "Virgil";
      src: url("https://excalidraw.com/Virgil.woff2") format("woff2");
    }
    text {
      font-family: "Virgil", "Segoe UI Emoji", "Apple Color Emoji", sans-serif;
    }
  </style>
  <g stroke-linecap="round" stroke-linejoin="round">
  <!-- Background -->
  <rect width="1100" height="640" fill="white" stroke="none"/>

  <!-- Dashboard -->
  <g>
    <path d="M69.96 25.04 C69.96 25.04, 69.96 25.04, 69.96 25.04 M69.96 25.04 C69.96 25.04, 69.96 25.04, 69.96 25.04 M69.45 34.88 C71.11 33.92, 77.70 29.02, 82.09 24.64 M69.15 37.89 C73.45 34.30, 76.09 28.74, 81.26 25.18 M71.41 49.94 C77.14 41.74, 79.43 38.91, 93.17 22.33 M69.73 48.82 C75.17 42.46, 81.48 35.85, 91.03 25.56 M69.89 63.65 C79.49 48.62, 94.64 34.98, 103.10 23.00 M69.60 63.23 C77.06 53.34, 86.27 42.57, 103.22 25.78 M70.47 75.19 C82.01 61.62, 99.32 42.83, 109.99 23.41 M70.44 75.00 C79.96 58.94, 92.48 45.49, 112.36 26.13 M71.50 83.14 C85.54 67.82, 102.89 42.52, 122.02 22.03 M68.70 87.30 C88.95 63.26, 109.41 39.98, 123.85 24.07 M68.92 100.45 C81.56 80.25, 100.86 63.21, 136.24 25.51 M70.28 98.95 C85.16 78.76, 103.83 61.88, 133.41 24.42 M70.07 107.78 C96.83 81.02, 124.02 52.87, 147.08 25.30 M69.13 109.41 C101.63 77.31, 130.11 41.63, 145.36 25.60 M71.46 120.78 C93.16 95.31, 113.59 73.70, 154.71 22.13 M70.91 123.74 C97.41 92.63, 122.63 64.34, 154.91 23.86 M69.85 133.69 C92.88 107.71, 116.48 80.56, 167.53 26.64 M68.87 135.82 C105.99 94.22, 138.91 51.83, 166.39 23.51 M72.74 148.37 C106.96 103.83, 148.16 58.92, 174.56 23.91 M70.21 146.08 C94.36 117.52, 119.07 90.22, 175.63 26.09 M67.43 159.90 C100.90 124.68, 129.95 97.70, 183.92 22.04 M68.97 159.71 C115.07 108.21, 158.12 59.08, 188.14 25.64 M70.81 169.84 C114.33 118.19, 156.59 69.77, 195.26 22.68 M69.67 170.62 C105.01 128.15, 142.93 85.88, 198.45 24.89 M70.96 181.86 C109.40 138.00, 152.55 88.53, 207.52 22.74 M69.01 184.37 C102.81 144.26, 138.05 105.49, 207.70 25.26 M69.16 197.66 C111.23 145.85, 153.16 97.01, 218.02 27.75 M70.28 195.71 C113.75 151.55, 154.18 102.31, 217.73 25.03 M76.72 200.56 C109.06 166.78, 143.14 129.58, 227.18 26.30 M75.64 200.89 C106.78 161.51, 139.53 124.58, 229.67 25.04 M88.89 201.54 C142.49 137.28, 193.07 79.82, 241.84 23.31 M86.11 200.37 C142.52 133.08, 198.77 67.54, 239.56 24.18 M99.53 200.52 C132.42 160.57, 169.62 119.33, 251.69 25.49 M98.66 199.40 C135.46 158.54, 173.01 118.00, 250.62 26.29 M108.27 201.25 C162.19 136.49, 215.98 71.42, 261.77 26.82 M109.31 200.42 C162.50 138.61, 214.78 79.18, 260.69 25.86 M118.68 201.11 C163.34 148.69, 208.41 103.35, 269.14 24.30 M119.48 201.02 C171.66 140.56, 223.67 81.40, 270.14 24.38 M130.18 201.70 C165.40 163.26, 196.45 126.26, 280.22 23.39 M128.70 200.05 C181.42 142.42, 227.94 86.69, 282.11 26.24 M140.09 199.21 C176.01 158.30, 209.90 122.47, 292.48 23.38 M139.87 201.15 C177.41 160.60, 212.39 119.92, 292.55 24.55 M150.76 200.06 C192.86 149.84, 238.05 97.00, 301.62 22.84 M151.93 201.15 C186.17 161.56, 219.75 123.65, 303.19 25.02 M161.50 201.13 C202.43 150.66, 251.57 99.18, 313.78 25.22 M162.56 201.22 C203.61 151.76, 245.78 101.32, 314.17 24.14 M170.63 200.37 C207.77 157.27, 248.36 115.40, 322.20 24.09 M171.04 200.29 C223.05 139.93, 274.69 80.51, 324.23 25.45 M182.64 202.34 C223.36 153.49, 266.54 99.95, 334.71 23.94 M183.53 201.15 C236.63 141.31, 290.29 80.15, 336.07 25.31 M194.98 198.38 C247.87 136.25, 304.18 72.58, 345.26 25.39 M192.98 198.81 C244.94 140.11, 298.04 79.03, 346.42 24.12 M205.22 197.56 C261.46 133.70, 319.48 67.87, 356.38 25.69 M204.78 199.29 C258.46 136.49, 313.52 70.92, 356.41 24.83 M213.15 201.78 C252.42 158.54, 290.73 115.78, 365.93 24.25 M214.15 200.33 C259.65 150.29, 303.80 96.63, 366.78 23.73 M227.87 201.14 C275.44 142.54, 323.06 87.55, 379.36 23.16 M224.13 200.07 C279.78 136.17, 335.10 74.98, 378.08 24.29 M234.31 199.81 C291.08 131.45, 348.75 67.55, 386.39 22.54 M235.69 200.57 C269.74 163.21, 301.14 125.41, 388.35 25.41 M246.10 201.30 C283.08 157.65, 323.43 117.56, 398.58 26.13 M245.40 198.74 C280.90 161.94, 311.77 126.29, 398.51 25.02 M256.85 198.74 C295.03 154.13, 336.70 112.39, 410.82 26.51 M258.39 200.04 C305.45 146.43, 350.26 94.77, 409.98 23.66 M267.57 200.79 C300.98 159.58, 333.32 121.79, 418.57 25.89 M268.24 199.19 C313.93 146.73, 358.80 95.35, 419.88 25.51 M277.98 202.36 C324.13 149.01, 366.97 97.57, 430.13 26.44 M276.93 199.74 C330.43 138.68, 384.59 77.61, 431.43 24.15 M286.05 202.41 C337.57 141.30, 391.11 84.00, 442.64 26.46 M287.48 199.40 C326.40 153.30, 365.60 107.61, 440.81 24.72 M301.42 198.78 C358.04 135.98, 418.54 68.84, 451.81 22.85 M300.31 200.66 C347.87 144.57, 399.43 86.41, 450.20 24.11 M309.40 200.89 C345.63 162.64, 376.28 122.14, 460.28 26.34 M310.98 201.20 C344.69 158.58, 382.06 115.16, 461.53 24.17 M318.16 200.51 C362.05 156.66, 399.61 112.20, 472.07 23.38 M319.96 200.71 C377.29 136.46, 431.16 72.40, 471.72 24.61 M330.26 202.67 C372.42 150.94, 413.27 104.33, 483.87 23.05 M330.31 199.47 C366.03 160.71, 401.51 121.51, 482.46 24.82 M339.65 200.81 C393.06 141.54, 444.47 83.23, 492.19 27.10 M342.85 199.30 C402.82 132.98, 460.03 64.13, 492.78 24.87 M354.08 202.58 C400.04 152.19, 442.93 99.36, 505.55 25.33 M351.32 199.53 C396.65 147.29, 444.48 94.55, 504.37 24.04 M361.54 199.87 C412.22 145.54, 458.16 91.77, 516.11 26.54 M362.91 200.62 C405.48 149.49, 448.62 101.85, 514.24 24.36 M373.03 199.78 C407.48 163.58, 436.73 125.08, 527.08 23.44 M373.13 200.05 C413.73 157.35, 449.72 113.76, 525.09 24.03 M383.97 199.68 C438.09 140.78, 487.68 79.69, 534.51 23.63 M383.84 201.00 C433.92 140.95, 483.47 82.69, 535.37 26.07 M396.55 197.83 C449.91 135.53, 501.54 74.74, 544.56 24.68 M395.81 200.69 C435.77 151.54, 478.90 100.32, 547.18 24.14 M406.57 198.98 C448.48 155.47, 486.78 104.93, 555.29 24.72 M406.47 199.01 C464.93 130.68, 523.90 60.01, 558.86 23.85 M415.69 199.55 C450.73 158.84, 488.86 114.27, 568.81 22.96 M415.21 199.57 C464.91 143.04, 516.92 83.03, 567.78 26.02 M428.39 198.34 C457.71 163.49, 489.65 126.06, 578.18 25.24 M426.18 200.56 C469.38 146.53, 513.65 96.77, 578.18 25.21 M438.77 201.99 C487.48 145.59, 534.55 88.66, 589.75 24.17 M438.31 200.88 C499.58 127.71, 558.16 58.45, 588.74 25.94 M447.92 200.15 C497.02 146.56, 550.71 89.25, 599.82 25.02 M448.15 201.14 C483.26 157.35, 520.38 116.77, 600.40 25.97 M460.83 201.46 C491.95 161.05, 525.49 118.23, 611.99 25.86 M457.71 199.65 C507.87 140.83, 559.50 82.60, 611.56 24.96 M468.19 198.49 C511.80 153.04, 550.53 107.44, 623.91 23.15 M469.60 201.03 C504.28 160.07, 538.46 122.15, 620.80 25.48 M478.89 198.66 C536.17 130.69, 593.61 66.14, 634.49 22.34 M479.67 199.50 C526.49 143.48, 574.83 89.88, 632.28 23.89 M491.66 199.39 C548.68 136.45, 606.20 68.36, 640.87 23.11 M489.92 200.22 C524.88 162.64, 557.46 123.57, 643.20 24.08 M502.14 198.64 C553.39 131.72, 613.63 69.39, 655.69 24.95 M501.17 199.98 C557.38 133.58, 611.07 71.59, 654.24 25.79 M509.43 201.31 C548.77 163.16, 580.37 122.96, 662.81 23.31 M510.03 201.74 C563.92 138.32, 619.20 77.23, 664.05 26.40 M520.75 201.41 C572.03 143.83, 624.69 80.07, 672.79 27.33 M521.99 199.86 C579.06 132.62, 636.97 67.77, 674.66 26.56 M534.33 202.30 C577.93 146.86, 621.11 99.07, 685.45 24.28 M532.45 200.98 C584.28 137.74, 638.98 76.60, 685.23 25.62 M544.10 198.93 C578.82 158.00, 612.38 119.27, 694.56 27.75 M542.27 199.14 C598.20 138.55, 652.42 74.88, 694.92 24.67 M551.26 199.38 C604.10 147.52, 649.91 95.71, 704.51 23.03 M554.85 200.42 C602.51 144.65, 652.19 88.43, 705.01 25.83 M566.34 199.94 C609.34 143.66, 660.14 88.40, 717.11 23.48 M563.62 201.12 C615.72 138.05, 669.84 75.87, 716.61 25.64 M575.70 200.82 C617.17 150.94, 659.25 97.81, 728.56 25.25 M575.19 201.48 C628.60 142.70, 680.52 81.89, 728.33 26.26 M584.23 201.59 C626.89 150.37, 668.69 104.29, 729.39 31.28 M586.70 199.11 C633.00 145.09, 677.37 93.51, 729.30 34.66 M597.25 201.55 C636.77 156.96, 679.48 105.32, 730.03 46.15 M596.16 200.24 C633.94 159.31, 669.82 118.11, 730.61 44.92 M606.81 200.20 C653.67 148.16, 705.51 88.56, 730.69 59.28 M608.14 200.25 C637.87 163.22, 672.38 123.01, 730.56 58.47 M614.40 197.67 C653.49 158.05, 694.04 116.36, 730.90 67.97 M617.57 200.10 C656.52 156.14, 692.26 112.57, 730.43 68.98 M629.93 201.98 C649.60 175.41, 675.61 142.80, 728.98 83.45 M627.15 199.71 C657.54 165.13, 687.07 128.69, 729.47 83.14 M637.22 199.01 C673.92 159.45, 710.20 119.37, 733.36 91.66 M638.80 198.98 C670.23 162.05, 700.81 126.48, 730.69 95.41 M650.64 201.20 C683.93 163.33, 715.67 129.63, 730.93 106.45 M647.93 198.99 C665.21 181.50, 682.18 162.00, 731.14 105.66 M657.51 200.13 C684.61 175.16, 707.67 144.37, 728.14 119.11 M658.75 200.26 C679.83 177.66, 702.86 153.29, 730.85 117.41 M668.54 197.08 C687.06 180.53, 702.38 164.58, 728.77 129.71 M669.54 200.93 C684.34 185.05, 696.57 169.55, 729.45 130.77 M678.27 197.58 C702.83 177.14, 720.95 152.41, 729.72 142.35 M681.91 200.99 C701.08 180.83, 718.03 158.16, 731.80 144.44 M691.54 200.00 C702.35 185.86, 716.41 171.32, 732.07 156.81 M692.13 200.52 C702.77 188.63, 712.90 175.76, 729.88 153.89 M701.86 202.07 C711.20 185.62, 724.20 175.88, 733.56 167.53 M703.35 200.89 C711.77 191.78, 719.09 182.24, 729.15 166.12 M711.92 201.48 C715.09 192.01, 724.28 186.34, 733.70 179.23 M713.93 199.97 C715.21 197.00, 720.18 190.90, 730.44 179.84 M723.84 201.24 C725.29 197.11, 727.85 197.54, 730.13 190.77 M723.69 199.55 C725.71 196.57, 728.89 193.39, 730.18 190.93" fill="none" stroke="#dbe4ff" stroke-width="1"/>
    <path d="M71.03 23.93 C265.72 23.83, 461.05 21.95, 730.24 26.15 M70.46 24.54 C230.69 26.42, 392.23 27.43, 730.59 25.42 M730.79 24.65 C731.03 91.74, 728.88 156.12, 729.43 199.11 M730.08 24.05 C727.80 80.44, 728.94 134.43, 729.50 201.01 M728.81 200.47 C595.72 197.81, 459.00 199.59, 71.13 199.83 M729.71 199.87 C490.84 201.71, 252.34 200.63, 69.95 200.57 M72.17 198.31 C69.57 151.47, 73.42 108.63, 70.76 23.22 M70.77 199.01 C72.35 146.89, 73.19 94.05, 69.96 24.68" fill="none" stroke="#4263eb" stroke-width="2"/>
  </g>
  <text x="400" y="62" text-anchor="middle" font-size="20" font-weight="400" fill="#1e1e1e">Streamlit Dashboard</text>
  <text x="400" y="84" text-anchor="middle" font-size="14" fill="#555">app.py</text>
  <g>
    <path d="M104.73 100.31 C104.73 100.31, 104.73 100.31, 104.73 100.31 M104.73 100.31 C104.73 100.31, 104.73 100.31, 104.73 100.31 M106.29 108.98 C106.15 106.30, 109.94 104.15, 112.54 100.60 M105.15 109.43 C106.91 107.39, 109.92 103.96, 113.17 100.35 M102.64 119.20 C111.16 109.27, 114.98 104.48, 120.87 97.76 M103.77 119.04 C109.32 112.51, 116.03 107.12, 119.53 99.28 M106.18 125.52 C114.92 116.86, 122.37 108.21, 128.10 100.30 M104.01 125.77 C110.77 122.37, 116.04 114.93, 129.19 99.40 M105.98 138.46 C117.99 125.20, 127.46 110.51, 134.50 101.98 M105.28 136.67 C114.61 125.39, 127.17 112.98, 138.06 100.67 M102.86 143.92 C122.15 127.09, 133.76 107.66, 142.21 98.99 M106.27 146.11 C114.06 135.89, 124.05 123.64, 144.48 99.89 M113.03 145.80 C127.55 129.65, 139.71 117.44, 154.23 101.50 M111.91 146.76 C122.05 132.54, 133.82 120.99, 154.22 98.75 M121.89 147.84 C129.88 132.27, 143.99 119.63, 161.56 97.41 M119.75 147.17 C133.07 131.95, 148.38 116.75, 159.67 98.69 M129.49 145.69 C136.61 133.59, 149.62 122.10, 169.97 101.56 M127.48 146.97 C139.90 133.00, 149.90 118.55, 169.21 98.86 M138.68 143.94 C143.53 138.16, 153.86 127.70, 175.10 101.40 M135.72 147.60 C152.59 128.53, 168.06 109.75, 177.37 99.92 M141.68 144.58 C159.06 126.79, 174.39 113.96, 186.59 97.30 M144.58 147.93 C156.04 132.14, 169.53 117.04, 185.57 99.01 M152.75 148.21 C164.63 128.40, 178.45 111.39, 191.23 102.20 M152.97 145.15 C166.20 129.63, 178.22 115.00, 193.29 99.59 M159.34 147.78 C167.49 134.25, 178.33 128.06, 197.67 100.84 M158.82 147.65 C173.93 129.88, 184.97 116.57, 200.43 100.37 M170.23 144.79 C181.96 133.38, 194.21 114.96, 205.58 97.49 M167.77 145.95 C183.25 129.88, 199.51 112.16, 207.48 99.15 M178.63 149.02 C193.04 129.28, 202.78 111.04, 217.09 102.92 M175.40 146.53 C186.37 133.29, 197.36 119.48, 214.59 100.52 M182.96 143.75 C200.65 125.89, 211.78 108.95, 227.21 100.35 M184.51 145.80 C198.14 128.06, 214.13 110.62, 225.06 100.95 M191.94 145.47 C204.32 134.09, 208.82 124.68, 232.03 102.21 M190.36 145.90 C207.19 130.58, 220.40 113.65, 232.07 100.21 M200.09 148.84 C209.86 133.42, 218.97 122.58, 235.80 105.59 M200.71 147.42 C208.90 136.26, 220.58 123.19, 235.91 106.04 M208.10 146.68 C219.93 132.87, 226.54 126.42, 233.59 112.92 M209.31 146.48 C217.94 133.82, 227.23 125.00, 235.16 115.45 M213.07 144.71 C220.94 139.83, 227.08 131.36, 233.84 126.45 M215.64 146.18 C218.90 141.11, 225.92 135.50, 235.35 122.40 M226.02 147.63 C224.63 141.80, 229.27 138.15, 234.55 135.10 M222.75 146.92 C226.26 142.12, 228.81 140.01, 236.61 131.53 M231.81 145.86 C233.65 144.90, 234.35 143.23, 236.43 141.37 M231.83 146.45 C232.58 145.67, 234.04 143.43, 236.43 140.97" fill="none" stroke="#bac8ff" stroke-width="1"/>
    <path d="M103.93 100.59 C137.40 99.75, 169.20 102.76, 237.47 102.07 M103.69 98.88 C152.00 100.63, 200.28 100.63, 234.60 100.66 M234.47 102.43 C233.76 109.99, 236.42 118.82, 237.85 145.97 M233.81 99.11 C235.93 110.79, 234.90 121.11, 234.60 144.85 M236.33 147.56 C193.34 146.59, 149.29 141.96, 103.03 148.87 M235.54 144.73 C196.08 147.83, 157.46 147.63, 103.58 146.13 M105.31 148.15 C107.46 131.00, 106.31 113.75, 106.88 101.08 M106.46 146.79 C105.41 130.17, 103.14 112.27, 104.41 101.30" fill="none" stroke="#4263eb" stroke-width="2"/>
  </g>
  <text x="170" y="128" text-anchor="middle" font-size="15" fill="#1e1e1e">Timeline</text>
  <g>
    <path d="M250.30 99.66 C250.30 99.66, 250.30 99.66, 250.30 99.66 M250.30 99.66 C250.30 99.66, 250.30 99.66, 250.30 99.66 M251.95 107.99 C250.98 105.24, 253.94 103.92, 258.75 99.56 M250.20 109.24 C251.72 107.21, 255.47 103.72, 257.21 99.01 M252.96 119.21 C253.92 108.70, 260.15 103.39, 265.44 101.40 M250.19 119.18 C255.94 112.57, 259.57 108.55, 266.96 98.70 M248.30 128.86 C257.14 119.55, 266.48 103.64, 276.33 102.62 M250.73 126.34 C258.71 117.76, 265.81 111.69, 273.52 100.81 M251.37 139.01 C260.55 124.98, 271.16 111.84, 280.83 100.76 M248.72 136.25 C258.57 126.90, 267.65 117.01, 281.93 101.25 M250.85 148.47 C266.54 131.92, 276.67 117.44, 291.32 99.64 M251.08 146.67 C260.92 135.58, 269.47 125.40, 289.78 99.35 M252.22 150.10 C262.45 139.79, 277.10 125.31, 298.69 97.33 M253.88 148.52 C263.51 139.46, 273.21 128.41, 297.61 100.31 M261.06 152.06 C273.57 138.53, 281.17 130.16, 306.16 102.85 M263.47 149.80 C275.24 133.53, 289.28 120.06, 305.46 101.53 M268.80 152.46 C279.77 140.57, 289.81 128.13, 314.43 100.37 M268.95 150.05 C284.43 130.54, 300.05 113.91, 314.77 101.53 M275.83 148.55 C288.65 136.83, 302.52 119.74, 322.14 99.61 M279.09 149.12 C291.59 132.35, 308.96 116.62, 321.71 99.16 M288.61 148.89 C298.31 134.31, 313.27 114.88, 332.37 102.33 M285.24 150.19 C302.17 133.63, 315.79 116.07, 328.39 98.67 M292.92 149.57 C305.59 137.57, 320.60 124.99, 337.80 102.48 M293.32 150.61 C305.30 136.88, 316.47 121.63, 338.81 100.70 M299.60 150.86 C313.73 133.48, 327.25 122.57, 342.49 102.91 M302.36 149.34 C310.87 138.54, 321.60 128.63, 346.44 100.64 M311.70 151.42 C325.09 138.63, 332.85 123.14, 353.03 97.52 M309.44 149.87 C323.47 135.35, 339.03 116.02, 354.15 100.53 M319.64 150.01 C330.10 137.00, 336.03 131.69, 361.68 97.00 M318.64 149.56 C328.78 137.44, 340.06 125.71, 362.14 98.49 M328.41 151.64 C335.72 141.47, 346.30 128.90, 367.58 98.99 M324.97 148.63 C337.34 137.72, 345.88 127.41, 369.88 100.63 M331.27 148.26 C349.38 136.57, 358.48 122.51, 374.48 98.74 M334.92 148.52 C345.78 134.94, 360.25 121.88, 378.68 101.43 M342.99 148.97 C358.29 134.49, 372.68 114.00, 387.91 101.36 M341.43 148.79 C352.40 139.16, 363.43 124.72, 384.62 101.65 M352.26 152.44 C366.09 132.94, 381.53 111.23, 391.68 100.21 M350.11 149.30 C359.10 140.09, 367.20 130.14, 392.83 101.52 M358.24 149.37 C372.23 132.47, 389.90 116.64, 401.68 98.10 M357.54 149.35 C369.78 133.12, 383.11 120.40, 401.07 100.61 M367.66 152.64 C378.29 135.36, 391.45 120.90, 397.82 107.53 M365.20 150.61 C378.08 135.23, 387.84 122.10, 399.45 109.81 M374.65 148.04 C383.69 136.84, 396.38 127.77, 401.46 120.73 M373.03 149.48 C382.37 140.46, 388.82 130.10, 401.64 118.05 M381.85 148.41 C385.80 141.31, 394.33 136.50, 397.60 127.98 M381.37 149.06 C387.67 143.37, 391.21 138.43, 401.86 128.40 M388.99 148.43 C392.75 149.02, 394.22 142.30, 402.25 136.01 M390.07 149.38 C392.29 145.58, 396.68 140.70, 399.50 136.97" fill="none" stroke="#bac8ff" stroke-width="1"/>
    <path d="M249.15 100.44 C287.83 98.83, 329.46 103.09, 402.65 99.97 M249.37 99.98 C305.99 101.99, 358.73 100.27, 400.33 100.77 M398.18 100.39 C401.17 111.80, 398.03 123.08, 402.81 144.55 M399.35 98.95 C401.10 114.87, 400.14 128.26, 398.98 145.97 M401.34 146.86 C356.15 146.96, 314.48 143.95, 247.54 147.89 M399.20 145.60 C359.21 146.04, 316.11 144.56, 250.25 146.27 M249.24 143.35 C247.59 131.72, 247.44 118.18, 251.01 102.64 M250.08 145.90 C250.29 133.96, 250.61 120.70, 250.22 99.62" fill="none" stroke="#4263eb" stroke-width="2"/>
  </g>
  <text x="325" y="128" text-anchor="middle" font-size="15" fill="#1e1e1e">Investigation</text>
  <g>
    <path d="M415.14 99.84 C415.14 99.84, 415.14 99.84, 415.14 99.84 M415.14 99.84 C415.14 99.84, 415.14 99.84, 415.14 99.84 M415.43 110.85 C416.05 105.47, 418.30 104.73, 421.40 101.55 M414.22 108.62 C416.85 106.01, 418.66 103.45, 422.71 100.10 M412.98 120.90 C420.00 114.44, 425.72 105.81, 433.04 100.15 M415.17 118.31 C421.58 111.88, 425.25 107.11, 430.82 99.12 M412.49 126.11 C421.47 119.32, 428.19 112.85, 438.06 98.45 M415.52 127.12 C425.14 116.29, 432.00 107.36, 439.64 99.52 M415.76 138.05 C418.89 131.49, 430.41 120.64, 445.93 100.32 M414.97 135.84 C425.78 126.47, 434.99 113.88, 445.65 100.32 M412.45 148.65 C427.72 132.46, 438.56 118.30, 454.58 98.73 M415.28 145.33 C423.77 134.21, 435.02 124.67, 455.65 100.14 M421.45 151.11 C435.93 131.22, 451.73 114.19, 462.70 100.17 M420.31 151.21 C429.99 136.01, 443.35 121.88, 464.08 100.46 M429.84 150.03 C434.45 139.61, 447.16 130.69, 467.66 98.80 M426.03 148.64 C436.16 138.72, 446.49 126.94, 470.36 99.89 M433.91 151.11 C449.73 132.75, 461.39 118.88, 476.24 96.91 M436.18 148.28 C448.64 136.53, 460.00 123.74, 477.78 100.39 M445.29 150.22 C455.75 135.91, 474.56 116.29, 484.48 96.98 M444.33 151.01 C451.46 138.86, 462.93 128.73, 486.86 98.53 M450.07 151.65 C465.37 132.77, 487.97 109.51, 497.12 101.22 M451.63 150.41 C467.36 130.32, 481.46 113.81, 493.80 100.67 M457.65 151.13 C470.44 136.26, 482.95 125.24, 501.39 97.56 M458.65 149.53 C474.69 130.53, 493.32 112.67, 501.88 99.23 M465.82 148.18 C481.18 131.69, 499.39 110.82, 507.17 98.99 M468.08 151.31 C482.32 133.38, 497.25 113.96, 510.63 100.70 M476.96 149.31 C490.70 130.22, 503.83 117.71, 518.13 101.77 M473.86 150.64 C487.83 137.02, 499.61 122.93, 518.48 101.05 M483.83 148.12 C495.14 136.97, 504.62 123.20, 526.53 98.53 M481.64 149.56 C494.97 135.43, 506.76 122.75, 526.71 99.56 M488.97 148.79 C508.06 132.47, 516.63 119.96, 535.66 98.78 M492.17 148.47 C506.30 133.69, 518.86 117.40, 533.33 100.45 M496.58 152.11 C514.34 133.77, 528.83 116.41, 542.66 99.91 M497.71 149.41 C511.01 136.30, 522.85 120.79, 543.02 99.72 M504.65 152.79 C520.46 133.28, 538.04 112.86, 549.69 101.76 M507.22 151.01 C518.75 132.75, 534.46 118.85, 546.82 101.80 M518.01 151.72 C523.17 142.93, 531.03 130.91, 549.43 110.67 M516.01 151.00 C526.40 135.81, 535.33 124.64, 546.64 112.37 M525.29 150.99 C533.21 139.29, 536.80 133.67, 549.27 120.89 M521.65 150.91 C531.48 139.41, 540.62 127.79, 548.08 121.95 M533.20 150.47 C532.95 142.28, 540.78 140.48, 547.15 130.74 M529.90 148.86 C537.52 143.06, 542.55 136.84, 548.22 131.76 M537.78 149.16 C540.18 149.10, 542.38 147.24, 549.16 137.64 M537.86 150.17 C542.34 147.01, 545.32 143.24, 546.86 138.58" fill="none" stroke="#bac8ff" stroke-width="1"/>
    <path d="M414.05 97.93 C456.87 100.11, 499.87 100.51, 544.12 99.25 M414.33 101.43 C464.68 99.31, 511.69 98.76, 545.61 101.29 M545.27 99.15 C542.59 117.85, 546.07 128.82, 544.73 147.50 M544.31 99.24 C544.27 108.37, 545.11 118.40, 543.53 145.83 M546.15 144.63 C512.65 144.07, 481.12 143.23, 416.67 147.80 M544.84 146.55 C511.89 147.09, 475.66 147.35, 414.29 146.08 M412.20 147.21 C415.05 129.75, 414.19 120.45, 415.44 98.24 M415.28 145.86 C415.71 136.81, 415.44 126.85, 415.47 100.57" fill="none" stroke="#4263eb" stroke-width="2"/>
  </g>
  <text x="480" y="128" text-anchor="middle" font-size="15" fill="#1e1e1e">Entities</text>
  <g>
    <path d="M560.05 99.94 C560.05 99.94, 560.05 99.94, 560.05 99.94 M560.05 99.94 C560.05 99.94, 560.05 99.94, 560.05 99.94 M559.90 109.47 C561.67 104.75, 564.00 105.23, 569.48 99.41 M559.43 108.70 C560.84 107.07, 563.95 104.38, 567.49 100.80 M558.96 119.15 C562.71 111.97, 567.88 109.25, 575.78 98.56 M559.30 119.64 C564.36 115.02, 567.75 112.18, 575.89 100.80 M562.61 129.53 C567.55 118.37, 576.88 109.91, 584.38 97.03 M558.40 128.11 C566.17 119.14, 574.07 112.81, 584.89 100.73 M562.05 139.12 C570.16 127.75, 575.38 120.95, 590.73 100.97 M560.94 136.14 C571.78 125.17, 582.56 110.54, 591.15 99.61 M560.85 145.18 C569.53 132.20, 580.53 119.24, 602.02 97.18 M561.21 144.72 C573.92 130.06, 586.42 115.24, 599.01 100.67 M569.29 148.30 C575.30 133.47, 587.22 119.83, 610.12 99.11 M566.81 146.70 C576.26 133.95, 586.51 123.04, 606.37 99.03 M573.23 145.13 C589.13 132.12, 599.05 118.51, 614.71 99.64 M575.84 147.22 C582.24 137.06, 592.45 127.38, 615.07 101.24 M580.24 144.67 C590.57 134.80, 601.80 126.19, 622.46 101.82 M583.22 147.75 C598.48 129.03, 614.32 112.06, 623.34 99.76 M592.20 148.86 C608.10 129.27, 619.99 112.42, 630.91 99.39 M591.56 145.44 C599.84 136.88, 608.24 127.04, 632.90 99.23 M597.84 148.05 C613.85 128.48, 631.92 107.87, 636.88 97.74 M599.97 147.35 C611.61 131.39, 627.69 115.05, 638.64 99.17 M607.86 145.76 C618.80 133.75, 634.70 119.48, 644.38 100.45 M608.39 144.96 C623.23 127.42, 638.87 112.00, 647.76 99.29 M614.83 145.18 C625.37 135.13, 639.86 118.47, 658.39 97.24 M615.78 146.42 C629.19 130.16, 640.98 113.20, 654.83 100.21 M625.59 146.19 C632.54 132.34, 648.13 119.34, 662.75 98.54 M621.77 147.28 C632.05 136.91, 642.52 123.03, 663.90 99.71 M633.19 143.81 C643.65 131.39, 653.54 123.13, 670.60 102.44 M630.79 147.76 C644.50 132.55, 656.90 116.50, 672.21 99.48 M639.99 147.02 C646.77 137.58, 652.71 124.58, 678.27 99.18 M638.48 148.23 C649.10 135.36, 658.52 125.98, 680.30 101.39 M644.82 143.43 C654.40 132.11, 670.70 119.00, 688.38 101.96 M648.10 147.75 C662.30 128.08, 678.53 109.39, 687.43 99.96 M656.90 145.86 C666.22 136.29, 676.88 120.85, 692.48 104.89 M653.66 146.28 C670.12 130.66, 684.12 115.32, 691.38 104.15 M662.22 147.29 C669.71 139.45, 677.78 128.39, 689.35 111.50 M662.59 145.44 C673.20 137.69, 680.61 124.88, 691.07 115.57 M667.45 149.36 C675.51 141.65, 681.22 135.46, 689.57 124.21 M669.89 147.78 C676.93 140.76, 680.64 135.00, 690.32 124.71 M681.46 144.57 C681.31 140.28, 687.85 139.83, 688.34 131.06 M678.21 145.56 C681.75 141.96, 685.48 136.07, 690.73 131.38 M687.24 145.63 C688.50 145.69, 687.82 144.03, 690.60 142.44 M686.66 146.47 C687.47 144.91, 689.04 143.66, 690.51 141.82" fill="none" stroke="#bac8ff" stroke-width="1"/>
    <path d="M559.19 102.11 C599.21 100.25, 638.23 102.39, 692.72 101.56 M560.08 98.68 C594.17 101.59, 629.64 101.47, 690.50 98.54 M689.55 100.90 C687.77 116.99, 691.44 132.02, 690.40 147.01 M688.72 99.89 C689.28 114.21, 689.54 125.76, 688.66 146.62 M689.40 143.40 C640.18 146.66, 592.01 142.30, 560.39 145.57 M688.77 146.51 C652.00 147.69, 613.50 146.71, 560.07 146.95 M558.17 146.71 C561.06 129.67, 558.94 121.67, 562.94 100.31 M558.99 144.81 C559.84 130.24, 559.17 113.32, 561.24 99.68" fill="none" stroke="#4263eb" stroke-width="2"/>
  </g>
  <text x="625" y="128" text-anchor="middle" font-size="15" fill="#1e1e1e">Report</text>
  <!-- Incident Data -->
  <g>
    <path d="M830.22 24.74 C830.22 24.74, 830.22 24.74, 830.22 24.74 M830.22 24.74 C830.22 24.74, 830.22 24.74, 830.22 24.74 M831.58 35.38 C834.07 35.84, 837.12 30.33, 843.01 26.97 M830.41 37.92 C833.36 36.20, 835.50 31.11, 841.71 25.60 M831.67 49.61 C837.95 43.09, 842.27 36.76, 852.03 26.57 M828.41 49.81 C837.67 38.80, 845.98 31.93, 852.93 23.84 M829.79 63.00 C839.91 52.51, 847.15 37.37, 861.62 23.99 M830.19 60.65 C837.14 52.26, 848.29 41.01, 861.91 25.02 M832.60 73.96 C839.57 57.73, 850.28 46.81, 873.75 27.48 M830.47 74.16 C841.91 60.80, 851.68 48.02, 870.75 25.86 M827.64 85.51 C846.18 64.89, 860.43 45.15, 880.86 24.19 M829.07 86.28 C847.95 64.37, 866.69 42.49, 883.25 25.79 M831.22 96.49 C847.98 77.94, 864.05 64.68, 892.55 23.91 M828.77 98.15 C852.39 71.37, 875.53 45.87, 893.50 25.75 M839.78 103.52 C861.02 75.39, 881.33 52.68, 902.36 22.82 M838.88 100.28 C852.36 85.43, 866.27 71.10, 904.92 25.25 M850.45 99.52 C877.60 70.35, 899.55 41.61, 917.32 25.10 M849.07 101.42 C864.18 80.26, 882.95 60.13, 916.04 26.25 M859.64 98.85 C880.51 79.59, 897.95 57.82, 928.13 27.73 M859.10 99.93 C886.21 69.90, 910.62 40.22, 924.87 24.21 M871.86 101.90 C888.78 81.80, 909.41 58.87, 933.34 23.29 M870.94 99.71 C888.36 78.05, 910.54 55.42, 936.32 26.24 M880.00 100.21 C906.90 70.63, 929.92 45.20, 945.55 26.81 M882.22 100.51 C893.83 83.78, 909.41 65.69, 945.61 24.12 M889.49 103.18 C909.08 82.34, 925.74 65.90, 955.59 24.52 M890.61 101.04 C908.94 78.38, 929.28 57.52, 957.66 24.45 M900.47 99.01 C920.05 81.36, 932.02 63.62, 968.72 24.74 M901.25 99.06 C919.01 82.86, 937.70 61.14, 967.52 24.74 M914.05 99.40 C937.34 73.55, 956.57 47.41, 980.79 24.61 M913.16 100.49 C932.30 75.51, 952.42 53.23, 979.76 25.47 M926.39 100.45 C945.89 76.97, 970.49 50.34, 990.45 24.98 M923.60 101.48 C939.12 84.38, 952.56 67.26, 988.88 24.22 M934.99 103.40 C956.05 75.51, 973.78 54.83, 999.35 27.15 M932.55 100.52 C959.80 74.84, 982.49 47.22, 998.73 24.75 M944.81 99.49 C962.35 82.81, 974.84 64.76, 1012.29 23.75 M944.05 101.53 C957.39 85.57, 970.05 67.72, 1008.88 25.07 M956.47 102.77 C972.95 83.24, 990.12 63.35, 1019.43 25.52 M955.65 98.95 C978.66 74.12, 999.21 49.27, 1022.06 23.59 M966.49 98.89 C991.95 70.53, 1020.54 44.74, 1032.49 22.09 M965.78 98.84 C986.45 76.77, 1007.48 53.53, 1030.57 25.14 M979.38 101.93 C1001.97 70.03, 1024.89 44.47, 1042.89 26.87 M975.20 100.96 C991.68 84.09, 1005.33 67.81, 1041.64 26.15 M989.93 103.19 C998.66 84.04, 1017.82 68.39, 1052.02 25.79 M988.37 98.87 C1005.47 79.80, 1023.39 58.55, 1051.90 23.67 M995.31 98.03 C1015.54 83.66, 1028.07 66.45, 1062.04 25.93 M996.86 101.06 C1012.29 81.53, 1027.98 63.83, 1060.46 28.25 M1007.34 100.69 C1022.64 81.01, 1039.76 67.04, 1060.80 43.28 M1007.78 100.98 C1026.67 82.35, 1042.27 62.41, 1060.95 40.07 M1015.93 99.80 C1034.32 85.84, 1041.76 70.74, 1057.74 50.01 M1017.49 101.92 C1035.82 80.90, 1051.55 64.54, 1060.75 53.37 M1027.98 100.24 C1039.50 86.15, 1052.41 76.39, 1059.79 64.37 M1027.70 102.11 C1038.37 89.25, 1050.75 76.10, 1061.02 65.74 M1039.58 100.45 C1043.79 93.64, 1046.95 92.23, 1060.07 79.99 M1039.84 102.28 C1045.63 93.51, 1051.54 88.16, 1058.63 76.63 M1050.69 98.87 C1054.94 98.69, 1056.09 95.16, 1059.07 89.61 M1050.22 100.05 C1052.85 97.36, 1054.25 94.80, 1059.50 90.20" fill="none" stroke="#fff3bf" stroke-width="1"/>
    <path d="M831.46 24.21 C879.15 26.92, 928.33 27.60, 1060.24 26.68 M829.55 24.92 C891.74 24.52, 951.02 23.58, 1060.97 23.98 M1059.38 22.63 C1061.43 47.72, 1058.06 73.03, 1059.39 97.43 M1058.96 24.31 C1059.98 52.10, 1059.39 82.71, 1060.31 98.85 M1059.94 99.06 C1012.24 98.93, 965.33 100.09, 832.34 101.67 M1059.66 98.75 C980.95 102.65, 901.17 101.48, 829.05 98.79 M829.22 97.82 C828.06 83.23, 831.60 69.02, 828.02 23.02 M828.66 99.21 C830.16 77.95, 830.00 59.27, 830.52 26.34" fill="none" stroke="#e67700" stroke-width="2"/>
  </g>
  <text x="945" y="55" text-anchor="middle" font-size="17" fill="#1e1e1e">Incident Data</text>
  <text x="945" y="75" text-anchor="middle" font-size="12" fill="#555">incident_data.py</text>
  <!-- Ingest Pipeline -->
  <g>
    <path d="M830.23 134.73 C830.23 134.73, 830.23 134.73, 830.23 134.73 M830.23 134.73 C830.23 134.73, 830.23 134.73, 830.23 134.73 M831.64 148.58 C834.09 143.45, 835.90 139.96, 839.92 136.38 M829.69 148.54 C833.01 142.79, 838.08 140.31, 840.76 134.72 M829.87 159.11 C832.04 156.48, 839.97 151.48, 853.96 132.38 M830.26 159.86 C836.05 154.00, 842.03 145.46, 852.54 135.71 M828.64 170.53 C839.03 160.22, 849.32 145.75, 862.38 134.62 M829.78 172.34 C839.71 160.52, 850.58 149.39, 862.94 134.92 M831.70 185.78 C844.41 167.22, 860.63 150.11, 873.48 134.15 M829.52 183.91 C846.51 163.90, 861.39 146.07, 870.82 135.39 M831.64 198.68 C850.92 171.60, 870.61 153.18, 884.04 134.36 M830.17 196.09 C846.87 177.63, 863.29 158.20, 882.28 134.27 M829.20 208.16 C846.52 188.23, 866.53 162.92, 894.88 133.10 M828.77 209.76 C845.08 188.85, 864.53 166.75, 892.41 134.18 M840.18 212.78 C849.13 193.66, 862.90 178.03, 903.22 132.93 M839.55 210.18 C857.87 188.89, 877.22 165.07, 903.56 135.00 M851.52 207.72 C869.66 183.06, 890.95 162.24, 915.67 137.26 M849.03 211.54 C869.87 186.33, 891.46 164.76, 913.31 135.53 M857.32 208.46 C880.82 189.04, 901.96 161.69, 925.93 133.62 M859.98 211.10 C881.78 183.12, 901.60 159.05, 924.16 134.29 M869.23 207.79 C886.30 193.78, 900.72 178.07, 934.49 136.97 M870.80 211.87 C881.96 192.91, 895.55 177.55, 935.16 136.37 M880.19 209.50 C902.98 184.33, 922.98 160.19, 944.29 137.03 M880.18 210.67 C895.60 195.52, 911.66 178.49, 945.60 136.30 M890.11 211.59 C915.00 185.36, 941.02 156.68, 956.45 135.57 M890.82 211.00 C916.59 182.37, 942.71 153.38, 958.63 133.87 M901.54 207.64 C919.32 191.56, 933.45 175.81, 965.91 135.76 M901.01 211.88 C917.83 193.42, 930.82 174.71, 966.94 134.96 M915.38 212.10 C931.53 186.04, 954.98 161.52, 981.14 137.45 M911.34 211.66 C937.13 183.72, 960.90 155.65, 977.40 134.43 M920.56 207.63 C943.98 186.59, 964.77 162.88, 989.84 132.47 M922.34 211.93 C935.22 193.52, 951.00 175.90, 987.74 134.90 M931.73 212.36 C957.53 182.55, 981.67 153.20, 1002.60 136.01 M935.12 209.30 C960.47 180.05, 986.07 152.28, 999.18 135.67 M942.94 209.25 C957.28 193.86, 973.30 179.11, 1012.62 133.84 M946.05 211.27 C962.24 188.98, 980.51 168.96, 1011.09 133.50 M953.33 207.40 C979.52 182.25, 1004.58 148.01, 1021.35 137.69 M956.41 210.10 C973.65 192.07, 991.04 171.90, 1021.67 135.47 M968.81 207.33 C984.44 183.47, 1006.05 161.86, 1034.24 132.56 M967.04 210.59 C984.14 187.39, 1002.85 167.58, 1031.58 135.86 M973.79 208.32 C995.75 192.16, 1011.65 169.86, 1044.38 131.98 M976.01 209.99 C990.60 194.67, 1004.83 174.90, 1041.60 134.93 M986.79 209.71 C1007.13 183.93, 1025.24 161.73, 1052.18 137.39 M988.24 210.80 C1013.23 180.63, 1038.21 152.04, 1053.32 133.83 M996.21 212.23 C1012.42 191.64, 1028.96 175.62, 1057.85 137.16 M998.21 209.62 C1016.63 190.31, 1035.72 167.33, 1060.45 139.16 M1009.95 207.29 C1021.78 194.17, 1035.48 174.38, 1059.61 152.94 M1008.57 210.04 C1022.88 194.48, 1037.26 177.43, 1061.16 151.84 M1020.50 209.04 C1032.37 193.72, 1047.97 176.62, 1061.26 161.36 M1018.17 212.15 C1035.61 193.77, 1052.28 172.44, 1061.53 163.34 M1027.19 210.71 C1041.82 195.88, 1049.04 186.70, 1061.48 176.47 M1028.33 210.45 C1041.14 199.69, 1051.30 185.17, 1060.81 174.66 M1040.00 208.41 C1045.23 203.98, 1056.83 193.41, 1062.06 189.53 M1039.54 211.18 C1046.18 202.92, 1053.10 194.72, 1058.68 186.64 M1048.46 211.26 C1051.52 207.35, 1054.78 205.99, 1060.22 197.82 M1051.42 211.81 C1053.13 207.58, 1057.11 202.90, 1061.16 200.45" fill="none" stroke="#e9ecef" stroke-width="1"/>
    <path d="M831.75 132.60 C897.63 139.22, 958.52 136.08, 1059.51 136.96 M829.53 134.24 C920.03 136.00, 1008.82 137.24, 1059.87 135.76 M1059.17 134.55 C1057.68 159.55, 1057.38 189.12, 1058.21 209.78 M1059.56 134.07 C1059.68 154.29, 1059.31 177.02, 1060.79 210.93 M1061.67 208.27 C979.40 210.02, 902.16 210.59, 829.93 209.94 M1060.81 210.99 C981.46 208.91, 902.18 209.35, 829.24 211.05 M827.11 207.37 C827.81 192.36, 831.04 174.59, 828.00 132.48 M828.53 208.65 C829.14 190.18, 828.39 171.16, 829.52 134.74" fill="none" stroke="#495057" stroke-width="2"/>
  </g>
  <text x="945" y="165" text-anchor="middle" font-size="17" fill="#1e1e1e">Ingest Pipeline</text>
  <text x="945" y="185" text-anchor="middle" font-size="12" fill="#555">ingest.py</text>
  <!-- Arrow: Data → Ingest -->
  <g>
    <path d="M943.26 98.45 C943.17 111.69, 944.74 122.91, 945.19 132.84 M945.66 99.01 C946.45 106.79, 946.08 114.01, 944.82 132.76" fill="none" stroke="#555" stroke-width="2"/>
    <path d="M946.59 132.47 C943.96 128.95, 941.87 124.70, 938.52 119.43 M944.84 132.43 C943.21 129.68, 942.52 126.70, 938.91 120.05" fill="none" stroke="#555" stroke-width="2"/>
    <path d="M945.31 131.47 C946.91 130.77, 949.81 125.84, 952.02 119.74 M945.66 133.38 C946.05 130.26, 947.77 128.30, 951.29 119.82" fill="none" stroke="#555" stroke-width="2"/>
  </g>
  <!-- Graphiti Client -->
  <g>
    <path d="M140.31 279.64 C140.31 279.64, 140.31 279.64, 140.31 279.64 M140.31 279.64 C140.31 279.64, 140.31 279.64, 140.31 279.64 M137.58 294.44 C142.16 285.59, 148.75 284.27, 149.23 280.40 M138.97 291.60 C141.29 288.27, 145.92 286.25, 149.44 279.20 M137.03 304.42 C145.86 297.56, 150.11 294.86, 162.29 278.93 M138.88 303.46 C144.46 296.99, 149.35 291.35, 161.92 281.54 M142.82 317.98 C147.82 306.16, 159.56 294.12, 172.58 278.49 M141.41 317.36 C145.60 309.65, 154.32 302.13, 172.91 280.80 M141.12 326.71 C154.61 312.57, 173.09 292.73, 181.98 281.21 M139.61 327.06 C150.50 318.66, 158.98 307.29, 182.66 281.76 M137.70 339.53 C160.96 317.82, 176.69 297.73, 191.07 279.63 M138.88 339.46 C155.55 325.48, 171.07 308.50, 193.06 280.09 M139.17 353.61 C158.96 330.64, 175.23 313.97, 205.30 280.42 M140.87 354.31 C157.89 333.29, 173.33 315.44, 204.24 280.24 M137.95 362.94 C160.88 345.01, 174.56 326.24, 211.34 279.95 M139.94 364.40 C160.57 346.07, 177.63 323.05, 214.36 280.68 M149.17 362.43 C174.95 339.17, 198.59 310.96, 225.42 281.96 M150.53 366.18 C174.09 340.16, 198.70 311.90, 225.46 280.02 M158.25 362.72 C177.20 345.84, 192.36 325.33, 233.75 279.15 M160.08 366.17 C192.13 332.19, 220.99 299.42, 234.26 280.24 M170.06 366.36 C195.99 340.31, 220.43 313.61, 246.88 282.82 M171.74 366.68 C189.54 342.78, 207.52 323.64, 246.94 280.85 M180.79 367.49 C204.68 344.20, 224.61 316.87, 258.09 280.49 M181.62 366.06 C203.11 337.57, 225.76 311.76, 258.00 279.12 M190.38 363.48 C209.49 345.46, 233.08 320.74, 267.71 277.52 M193.64 364.89 C215.02 338.21, 237.17 315.53, 268.04 279.22 M202.83 366.54 C222.71 340.84, 248.96 315.12, 277.59 278.77 M204.32 366.17 C233.26 331.71, 264.50 296.11, 277.59 280.42 M214.62 367.36 C232.47 347.81, 252.35 324.18, 291.36 282.17 M214.61 366.50 C237.25 339.73, 261.22 313.61, 289.92 280.30 M227.06 364.72 C245.73 340.62, 262.89 322.34, 296.91 278.38 M223.71 365.31 C242.62 344.98, 260.34 325.19, 298.84 280.92 M234.68 365.13 C253.36 341.48, 277.40 317.64, 308.71 280.42 M234.84 364.96 C260.54 339.90, 281.23 313.73, 309.53 280.01 M243.62 364.44 C271.00 340.53, 291.52 310.75, 320.17 281.27 M246.10 365.02 C277.07 332.19, 304.00 300.49, 320.33 280.16 M253.94 365.48 C282.49 342.45, 299.31 317.61, 328.08 277.51 M256.26 365.40 C278.18 341.01, 301.37 314.07, 331.58 279.99 M266.08 365.67 C287.37 340.43, 312.72 315.48, 338.90 280.94 M267.58 363.56 C296.53 334.19, 324.72 299.45, 342.42 280.37 M275.17 362.66 C304.43 331.91, 334.17 301.67, 351.23 282.21 M276.62 363.69 C293.91 345.33, 310.85 326.38, 353.58 278.58 M289.45 365.95 C312.23 332.59, 338.50 306.84, 362.09 280.45 M289.05 364.90 C315.39 334.76, 340.30 304.82, 364.25 280.51 M300.61 366.51 C320.27 342.61, 333.73 322.96, 373.36 276.88 M298.45 364.42 C321.72 339.71, 343.57 313.54, 374.82 279.85 M308.18 366.38 C337.20 334.89, 364.04 305.06, 385.49 281.19 M310.15 363.74 C336.79 329.16, 367.63 297.75, 383.09 280.02 M319.92 366.38 C339.94 346.81, 356.93 324.02, 394.46 278.17 M320.03 365.88 C336.53 347.47, 354.21 325.77, 392.69 279.35 M334.16 365.63 C358.06 333.41, 386.19 305.55, 406.27 279.84 M332.32 363.49 C361.11 329.64, 387.40 297.15, 405.95 281.78 M340.21 367.23 C367.16 338.81, 388.01 311.01, 415.91 280.06 M341.45 366.09 C367.24 334.44, 391.83 305.83, 414.36 279.05 M354.06 366.66 C371.56 343.98, 384.27 323.02, 425.07 278.92 M352.14 365.02 C367.99 346.82, 384.66 331.48, 424.68 281.65 M361.37 366.32 C381.21 346.56, 401.86 323.77, 436.55 282.34 M363.91 366.56 C388.39 334.07, 417.30 304.84, 437.80 279.96 M373.94 367.75 C389.88 345.40, 406.17 326.47, 448.61 277.73 M372.91 366.69 C396.89 339.32, 419.87 316.24, 448.53 280.48 M384.68 368.20 C403.35 344.12, 423.16 322.78, 455.35 281.60 M383.37 366.23 C411.90 334.65, 438.36 303.11, 457.42 279.00 M397.35 367.01 C419.08 340.33, 437.54 313.94, 471.07 279.17 M394.77 365.80 C416.18 343.56, 437.45 319.63, 467.56 278.81 M402.91 365.26 C429.84 341.44, 455.43 309.60, 476.68 278.01 M404.60 366.03 C421.86 346.64, 437.49 326.94, 478.41 278.85 M415.93 365.35 C440.41 337.90, 462.95 309.12, 492.05 277.67 M414.27 364.66 C443.56 335.39, 468.00 303.07, 488.59 279.92 M426.91 364.69 C451.06 335.37, 472.04 309.85, 498.37 281.29 M425.81 365.85 C453.38 331.17, 482.01 297.95, 501.73 278.88 M438.74 367.25 C461.59 342.24, 484.26 314.63, 510.58 277.23 M435.76 365.27 C462.49 337.55, 488.81 307.50, 511.24 280.80 M448.98 365.24 C465.85 343.31, 481.68 323.60, 523.68 280.72 M446.97 365.32 C466.31 341.38, 485.47 319.69, 521.15 281.18 M456.30 362.73 C484.27 339.16, 506.06 310.57, 531.16 279.43 M459.38 366.34 C485.84 331.95, 513.89 300.59, 530.91 281.14 M466.84 363.24 C484.08 346.33, 500.84 328.44, 543.31 281.15 M469.86 363.77 C490.93 341.43, 513.63 314.01, 544.19 278.59 M476.56 363.40 C498.39 346.70, 512.33 327.30, 551.69 277.39 M478.03 366.33 C496.51 344.38, 514.18 323.55, 553.75 280.39 M489.66 364.56 C513.62 339.13, 531.99 316.51, 565.40 279.00 M489.03 366.24 C508.48 342.96, 528.31 321.04, 565.18 278.62 M500.90 366.42 C527.65 334.01, 553.35 302.05, 575.53 279.81 M501.39 366.39 C519.04 342.74, 539.41 322.17, 575.74 280.69 M514.04 366.64 C527.39 344.85, 545.81 326.40, 585.51 280.24 M512.81 365.52 C536.42 335.48, 561.79 308.24, 586.20 279.55 M524.15 366.51 C540.48 346.30, 552.73 329.25, 593.47 280.94 M522.95 364.41 C546.79 336.59, 571.03 307.58, 594.61 280.90 M530.03 364.50 C552.78 338.64, 575.88 316.45, 604.65 282.41 M533.31 366.08 C553.73 341.90, 573.86 318.19, 608.14 279.35 M540.56 361.96 C566.20 337.23, 595.73 304.63, 619.09 279.36 M543.95 363.97 C570.83 333.51, 598.62 302.81, 615.22 280.36 M551.11 362.69 C574.98 345.11, 595.77 317.74, 628.63 281.35 M553.41 366.14 C569.44 344.48, 588.48 326.50, 626.99 279.45 M561.84 366.61 C584.43 339.81, 602.44 318.65, 637.37 280.92 M564.43 365.41 C582.40 346.24, 599.29 324.75, 637.18 278.87 M572.18 363.35 C599.58 341.62, 617.56 316.27, 646.64 280.22 M574.81 363.62 C597.87 340.80, 618.88 316.21, 648.51 278.77 M586.47 362.64 C599.86 345.32, 618.69 329.49, 660.75 279.34 M585.55 366.52 C601.40 349.84, 618.32 330.00, 659.91 281.19 M592.97 366.93 C622.34 332.16, 655.18 295.98, 669.34 282.00 M594.29 365.94 C624.61 332.90, 651.25 299.62, 669.27 281.19 M608.32 363.51 C626.51 344.61, 648.10 317.85, 667.28 295.19 M606.21 365.53 C628.22 340.50, 646.81 315.88, 668.79 291.14 M614.55 363.16 C633.13 344.58, 652.60 327.00, 668.50 304.63 M618.41 365.93 C635.69 344.38, 656.55 321.69, 670.27 304.70 M624.76 364.50 C635.16 352.42, 645.53 340.28, 668.93 316.54 M628.13 365.68 C645.87 345.66, 661.85 324.82, 670.45 315.19 M635.52 365.63 C650.39 352.99, 657.68 342.62, 668.66 328.05 M638.53 364.44 C646.36 354.81, 657.33 341.30, 669.63 328.49 M651.23 363.72 C653.65 354.10, 666.88 349.35, 668.98 341.70 M649.49 366.16 C654.38 359.52, 658.26 353.91, 671.16 342.19 M660.32 366.42 C660.31 363.85, 664.04 359.60, 669.01 351.97 M660.25 364.47 C663.44 362.33, 665.72 357.94, 670.99 353.30" fill="none" stroke="#d0bfff" stroke-width="1"/>
    <path d="M140.81 278.90 C281.09 277.15, 422.01 278.76, 670.46 279.28 M139.88 279.58 C341.36 277.07, 543.18 276.43, 670.09 280.46 M670.01 282.79 C672.28 306.73, 667.92 332.18, 669.23 367.09 M670.71 281.00 C669.32 301.04, 669.23 321.88, 670.61 365.74 M668.99 364.94 C521.46 366.25, 375.23 366.60, 140.24 364.25 M670.00 364.73 C531.15 362.91, 393.04 362.62, 139.56 365.08 M140.61 364.27 C136.25 339.91, 140.32 315.23, 141.47 281.71 M141.28 363.81 C139.31 337.35, 141.50 311.01, 139.39 279.11" fill="none" stroke="#7048e8" stroke-width="2"/>
  </g>
  <text x="405" y="315" text-anchor="middle" font-size="19" fill="#1e1e1e">Graphiti Client</text>
  <text x="405" y="338" text-anchor="middle" font-size="13" fill="#555">config.py</text>
  <!-- Arrow: Dashboard → Graphiti -->
  <g>
    <path d="M402.39 197.74 C398.44 230.60, 397.86 259.90, 401.27 278.43 M400.04 199.19 C401.02 226.35, 399.27 251.43, 400.75 277.46" fill="none" stroke="#555" stroke-width="2"/>
    <path d="M398.56 278.82 C397.25 271.77, 394.11 269.47, 394.17 265.43 M400.31 278.15 C397.02 273.15, 394.72 267.80, 393.88 265.83" fill="none" stroke="#555" stroke-width="2"/>
    <path d="M400.64 277.82 C400.61 273.70, 403.17 267.37, 407.67 265.75 M399.45 277.43 C401.66 273.85, 403.56 269.51, 406.26 265.60" fill="none" stroke="#555" stroke-width="2"/>
  </g>
  <text x="418" y="244" font-size="12" fill="#777" font-style="italic">search / query</text>
  <!-- Arrow: Ingest → Graphiti -->
  <g>
    <path d="M832.08 173.87 C825.62 175.81, 824.21 178.88, 818.33 181.59 M830.18 171.53 C826.76 175.42, 822.45 178.44, 815.87 183.14" fill="none" stroke="#555" stroke-width="2"/>
    <path d="M815.34 181.52 C813.28 185.61, 811.66 187.82, 801.97 194.49 M815.98 183.32 C811.99 185.95, 808.57 190.52, 804.08 195.56" fill="none" stroke="#555" stroke-width="2"/>
    <path d="M804.42 193.47 C799.43 199.95, 793.00 202.32, 791.01 207.68 M803.72 195.08 C798.73 198.14, 792.98 202.96, 790.05 206.76" fill="none" stroke="#555" stroke-width="2"/>
    <path d="M792.20 207.76 C784.99 209.13, 780.88 213.69, 777.57 215.56 M790.91 206.10 C784.90 209.88, 780.18 215.66, 776.04 216.89" fill="none" stroke="#555" stroke-width="2"/>
    <path d="M777.46 219.11 C772.01 221.16, 768.69 222.70, 762.94 229.05 M777.90 217.68 C774.47 221.26, 769.85 223.95, 764.59 229.90" fill="none" stroke="#555" stroke-width="2"/>
    <path d="M764.47 228.70 C761.12 231.49, 757.46 233.46, 748.91 240.85 M764.66 228.34 C758.50 232.14, 755.22 236.23, 749.97 241.50" fill="none" stroke="#555" stroke-width="2"/>
    <path d="M748.92 242.57 C745.81 244.78, 738.78 250.49, 736.08 252.94 M751.26 241.07 C746.40 245.13, 741.79 249.12, 737.32 251.87" fill="none" stroke="#555" stroke-width="2"/>
    <path d="M736.25 250.40 C732.53 255.11, 731.87 260.08, 724.98 263.92 M737.31 253.04 C734.00 255.25, 729.33 259.83, 724.68 263.27" fill="none" stroke="#555" stroke-width="2"/>
    <path d="M724.64 263.28 C718.89 265.86, 716.82 271.98, 712.28 274.67 M723.67 263.54 C720.43 267.59, 717.87 269.59, 711.60 275.42" fill="none" stroke="#555" stroke-width="2"/>
    <path d="M711.15 273.63 C706.18 279.35, 704.77 280.80, 698.77 288.46 M711.43 274.56 C709.27 277.03, 705.76 280.31, 697.77 286.28" fill="none" stroke="#555" stroke-width="2"/>
    <path d="M699.35 285.23 C696.50 288.98, 691.60 291.25, 684.07 299.46 M698.99 286.16 C693.88 290.39, 689.52 295.52, 684.39 297.92" fill="none" stroke="#555" stroke-width="2"/>
    <path d="M684.46 298.87 C680.77 301.84, 676.03 304.77, 673.77 311.33 M684.73 298.97 C681.03 301.39, 675.51 306.82, 671.17 310.20" fill="none" stroke="#555" stroke-width="2"/>
    <path d="M670.95 310.68 C672.91 305.53, 675.76 302.31, 677.18 298.55 M671.64 309.78 C673.97 306.93, 675.12 303.06, 677.56 297.60" fill="none" stroke="#555" stroke-width="2"/>
    <path d="M671.89 311.10 C674.25 307.45, 680.41 306.75, 684.43 306.08 M672.58 309.80 C675.98 308.03, 680.49 307.31, 685.81 306.48" fill="none" stroke="#555" stroke-width="2"/>
  </g>
  <text x="740" y="248" font-size="12" fill="#777" font-style="italic">add_episode</text>
  <!-- Anthropic -->
  <g>
    <path d="M19.73 470.31 C19.73 470.31, 19.73 470.31, 19.73 470.31 M19.73 470.31 C19.73 470.31, 19.73 470.31, 19.73 470.31 M17.67 484.63 C24.21 479.44, 26.37 473.39, 29.20 468.40 M19.52 483.06 C24.66 478.41, 26.15 472.62, 29.27 469.46 M20.18 491.43 C25.08 489.62, 29.26 478.41, 39.92 470.21 M20.93 493.62 C27.05 484.76, 36.01 475.61, 40.32 469.03 M18.42 504.46 C29.23 495.87, 36.98 488.95, 51.40 467.84 M21.29 506.88 C31.13 494.70, 43.31 480.49, 53.09 468.86 M19.33 515.95 C32.16 507.50, 39.11 498.85, 62.27 472.85 M21.52 517.25 C28.01 507.77, 38.13 499.00, 61.02 468.85 M17.87 531.46 C35.26 518.75, 46.27 503.09, 72.74 467.25 M18.55 529.96 C39.54 511.04, 57.51 487.92, 71.91 470.89 M21.29 545.30 C45.46 511.36, 68.20 483.82, 82.47 470.98 M20.90 542.23 C46.30 516.82, 68.30 487.34, 84.55 468.68 M19.30 552.92 C41.67 537.08, 59.82 512.04, 94.65 471.73 M18.59 555.90 C36.36 536.69, 55.43 518.90, 92.69 470.85 M20.82 567.79 C52.62 527.49, 83.75 490.07, 102.14 468.80 M19.76 567.43 C41.14 540.86, 65.30 515.26, 103.94 469.97 M29.30 572.96 C49.47 545.99, 67.69 524.04, 115.62 469.03 M28.79 570.73 C56.99 540.47, 81.62 508.04, 116.76 468.64 M37.89 571.06 C69.68 539.15, 94.88 504.77, 125.68 470.63 M38.26 571.27 C63.19 540.02, 87.91 512.69, 127.33 469.57 M49.28 568.13 C79.86 537.99, 106.94 502.86, 136.97 471.09 M48.63 570.15 C69.03 546.76, 89.36 524.65, 136.55 468.59 M61.83 569.41 C95.01 533.40, 130.81 493.39, 148.32 469.03 M60.20 569.05 C92.35 533.02, 123.93 495.55, 147.94 468.77 M71.09 572.32 C91.13 549.96, 104.72 528.63, 156.85 472.06 M71.37 569.40 C97.44 539.13, 125.59 506.81, 156.58 470.42 M79.90 568.25 C108.43 540.10, 133.49 511.46, 168.11 468.71 M82.61 571.39 C111.70 535.23, 139.78 500.30, 168.07 470.23 M90.52 568.50 C110.84 545.72, 136.44 519.41, 176.19 472.25 M91.42 570.04 C123.97 530.11, 158.93 490.75, 178.46 469.26 M102.78 570.13 C124.64 543.04, 149.65 514.73, 191.89 468.59 M102.22 569.28 C131.93 535.73, 160.42 499.43, 190.15 469.04 M112.18 569.84 C137.17 540.93, 166.29 510.72, 198.76 472.16 M112.33 569.01 C144.57 532.76, 180.40 494.81, 200.89 470.64 M126.00 571.83 C140.41 549.12, 155.68 527.63, 211.33 467.77 M124.87 570.15 C154.41 534.08, 183.25 498.58, 210.68 470.69 M131.48 571.69 C166.01 534.12, 197.44 495.04, 217.16 474.76 M134.73 570.69 C159.79 542.13, 184.22 513.60, 220.72 471.77 M147.87 570.28 C172.82 537.71, 203.10 505.68, 220.44 485.88 M144.48 570.80 C167.67 545.35, 188.72 518.91, 219.78 484.41 M158.64 569.58 C176.92 547.87, 190.10 524.67, 217.72 494.55 M156.34 568.84 C169.57 553.00, 184.60 537.97, 219.77 494.61 M163.53 568.61 C179.51 555.55, 194.22 534.41, 220.45 505.87 M167.07 569.46 C187.34 546.99, 209.33 520.89, 221.08 507.98 M176.71 571.24 C192.47 555.06, 203.68 539.40, 219.65 522.71 M177.97 570.65 C192.97 551.58, 205.51 534.30, 219.06 521.05 M188.26 570.90 C199.90 558.74, 212.43 540.19, 219.34 530.33 M186.10 569.52 C198.00 558.77, 206.23 549.24, 219.25 533.05 M194.89 573.35 C204.21 564.69, 208.07 554.79, 219.31 543.25 M196.88 570.43 C202.95 565.90, 206.26 559.30, 220.01 544.99 M206.35 572.88 C213.01 566.66, 214.14 563.58, 221.19 557.56 M208.99 570.51 C211.40 568.49, 214.19 565.97, 221.33 557.19 M219.07 570.50 C219.29 569.94, 219.61 569.99, 219.91 568.91 M218.79 570.53 C219.38 569.86, 219.78 569.47, 220.14 568.95" fill="none" stroke="#ffc9c9" stroke-width="1"/>
    <path d="M20.79 470.04 C72.80 466.89, 126.69 468.08, 222.21 472.67 M21.06 471.31 C67.89 472.23, 114.09 473.87, 220.42 469.15 M218.91 471.48 C218.67 500.21, 218.60 526.00, 219.36 569.96 M220.56 469.75 C220.28 495.81, 220.32 521.85, 218.56 569.65 M218.35 569.17 C176.40 566.17, 127.99 566.12, 22.52 568.17 M219.58 568.79 C152.05 571.15, 82.24 571.67, 20.71 571.15 M21.83 571.29 C23.33 535.93, 23.54 505.91, 17.36 467.30 M19.32 570.06 C20.59 546.00, 20.75 525.87, 20.75 471.38" fill="none" stroke="#e03131" stroke-width="2"/>
  </g>
  <text x="120" y="508" text-anchor="middle" font-size="17" fill="#1e1e1e">Anthropic</text>
  <text x="120" y="528" text-anchor="middle" font-size="12" fill="#555">Claude API</text>
  <text x="120" y="550" text-anchor="middle" font-size="11" fill="#e03131" font-weight="600">LLM</text>
  <!-- Local Embedder -->
  <g>
    <path d="M249.80 470.23 C249.80 470.23, 249.80 470.23, 249.80 470.23 M249.80 470.23 C249.80 470.23, 249.80 470.23, 249.80 470.23 M248.59 484.27 C252.75 479.74, 258.61 476.09, 260.10 468.34 M249.54 483.02 C253.36 476.81, 257.48 473.77, 260.97 469.15 M248.74 493.14 C252.88 487.71, 261.08 486.79, 272.48 470.48 M251.24 494.52 C253.69 490.13, 257.98 485.45, 269.79 468.67 M248.43 505.64 C261.25 495.59, 273.69 479.97, 281.65 471.00 M248.99 505.68 C258.89 498.07, 267.16 486.89, 283.17 469.47 M249.18 517.91 C257.51 504.17, 269.46 492.39, 289.99 471.39 M249.86 519.30 C261.30 507.31, 270.26 497.07, 293.06 471.41 M250.30 529.61 C269.75 510.46, 284.33 492.00, 304.20 468.14 M250.31 530.26 C262.70 513.74, 276.93 500.11, 302.62 470.56 M248.91 541.69 C274.26 517.74, 294.52 497.98, 315.62 468.92 M249.48 544.40 C271.06 517.70, 294.96 494.13, 313.82 470.11 M252.88 558.01 C266.23 537.37, 280.58 518.79, 322.49 467.27 M251.16 556.68 C277.29 522.79, 306.78 491.76, 323.69 470.49 M248.49 566.80 C268.36 547.75, 289.17 526.48, 334.25 471.27 M250.49 566.07 C272.77 539.92, 295.05 515.23, 335.69 468.57 M260.62 572.33 C287.96 538.33, 320.27 505.46, 345.90 472.28 M259.16 571.65 C278.83 547.04, 297.35 523.39, 344.08 468.81 M270.04 569.66 C297.39 532.94, 326.81 497.60, 354.26 467.57 M268.79 568.94 C288.76 547.31, 308.04 522.81, 357.23 470.39 M281.53 567.31 C304.88 541.38, 334.47 506.15, 368.33 471.06 M280.96 569.90 C301.62 548.84, 320.29 527.33, 367.00 469.39 M292.10 567.89 C310.96 548.41, 328.70 527.40, 377.57 469.96 M288.63 569.15 C324.18 531.78, 354.05 497.03, 378.03 469.92 M298.78 569.80 C333.73 534.37, 359.61 498.84, 386.23 471.47 M299.81 570.07 C329.78 536.15, 361.30 503.07, 389.13 468.32 M308.85 571.98 C343.94 537.20, 374.01 502.02, 399.63 471.51 M309.91 569.02 C334.62 544.91, 357.77 516.10, 398.62 470.27 M320.20 572.51 C355.48 531.71, 394.24 487.62, 410.55 471.33 M322.08 569.46 C351.96 537.49, 379.29 502.53, 409.65 468.98 M331.63 567.37 C363.48 537.32, 395.14 500.01, 421.43 470.28 M331.59 569.12 C352.35 547.50, 372.16 525.07, 420.55 468.32 M341.16 567.11 C379.42 529.11, 411.23 494.35, 430.79 470.43 M343.11 571.14 C372.33 530.95, 404.76 496.12, 430.20 470.01 M356.32 571.50 C382.91 532.99, 414.02 502.66, 442.82 470.06 M355.14 571.26 C387.27 532.08, 421.93 493.10, 439.68 470.48 M362.53 568.26 C382.71 547.94, 398.93 531.45, 449.02 472.79 M365.25 568.94 C396.55 531.91, 427.65 497.51, 449.96 470.58 M375.33 567.73 C398.12 548.04, 417.92 526.26, 447.35 484.90 M375.51 569.55 C393.83 548.95, 410.39 528.76, 449.02 485.24 M384.09 572.32 C402.57 547.85, 422.88 525.80, 448.74 495.77 M385.14 569.23 C401.38 552.51, 418.10 529.70, 449.48 494.48 M394.92 572.18 C413.48 549.91, 430.05 529.55, 448.56 507.52 M395.48 572.09 C412.39 551.70, 429.67 532.67, 449.02 506.50 M407.09 572.39 C417.03 553.21, 430.68 537.13, 452.07 517.17 M405.41 569.85 C423.21 551.82, 438.59 533.30, 450.91 519.27 M419.89 570.66 C422.13 559.87, 431.37 555.23, 448.10 534.03 M416.29 571.00 C429.88 556.71, 443.51 540.44, 450.69 532.41 M430.36 568.76 C431.86 564.28, 439.57 560.16, 451.98 545.41 M427.68 570.69 C434.70 562.09, 443.32 552.60, 450.17 543.39 M437.64 571.14 C442.31 568.15, 445.71 562.50, 451.73 555.92 M439.53 570.87 C440.25 567.03, 444.19 565.80, 449.83 557.14 M448.71 570.58 C449.49 570.09, 450.04 569.27, 450.39 569.09 M448.94 570.45 C449.41 569.86, 449.53 569.61, 450.26 569.06" fill="none" stroke="#b2f2bb" stroke-width="1"/>
    <path d="M251.83 471.62 C305.54 470.99, 362.90 467.90, 450.17 471.67 M249.02 470.03 C308.21 470.87, 368.46 472.85, 450.68 471.34 M449.92 470.40 C448.31 493.08, 447.36 516.88, 448.55 568.81 M450.00 470.50 C448.29 499.42, 450.33 525.70, 449.04 568.70 M449.54 570.64 C391.32 573.31, 331.14 571.66, 247.82 571.39 M450.61 570.39 C401.54 571.78, 350.31 570.11, 250.32 568.86 M252.70 572.59 C246.92 536.77, 247.48 504.98, 248.82 471.79 M251.13 571.24 C249.27 538.76, 249.22 507.61, 250.90 468.50" fill="none" stroke="#2f9e44" stroke-width="2"/>
  </g>
  <text x="350" y="508" text-anchor="middle" font-size="17" fill="#1e1e1e">Local Embedder</text>
  <text x="350" y="528" text-anchor="middle" font-size="12" fill="#555">MiniLM-L6-v2</text>
  <text x="350" y="550" text-anchor="middle" font-size="11" fill="#2f9e44" font-weight="600">Embeddings</text>
  <!-- BGE Reranker -->
  <g>
    <path d="M479.87 470.15 C479.87 470.15, 479.87 470.15, 479.87 470.15 M479.87 470.15 C479.87 470.15, 479.87 470.15, 479.87 470.15 M479.51 483.91 C481.30 480.34, 486.06 474.30, 490.99 468.27 M479.57 482.99 C484.47 477.30, 488.80 472.20, 490.28 471.24 M477.31 494.85 C484.89 486.34, 495.30 478.88, 499.04 470.75 M481.55 495.41 C484.53 487.66, 491.35 482.63, 502.25 471.31 M478.43 506.83 C492.98 495.60, 503.81 484.54, 511.91 468.15 M479.68 507.48 C494.03 491.19, 504.70 478.79, 513.26 470.08 M479.69 519.12 C489.35 507.53, 500.15 492.80, 523.71 469.93 M478.86 517.60 C490.65 504.96, 504.31 490.41, 522.09 470.97 M482.73 533.77 C496.41 509.76, 520.56 488.51, 535.66 469.04 M479.07 530.56 C499.48 507.22, 517.61 484.84, 533.34 470.24 M482.53 544.08 C497.05 522.22, 514.85 504.24, 542.78 472.86 M481.06 543.57 C498.82 520.48, 518.63 499.84, 543.10 468.53 M480.46 557.09 C508.17 528.83, 533.55 493.66, 556.34 468.80 M480.73 554.47 C505.96 525.95, 528.04 498.73, 554.69 470.13 M482.16 565.82 C498.11 542.53, 519.52 517.94, 566.37 467.74 M481.22 567.70 C501.40 541.98, 524.80 515.20, 564.43 470.18 M482.65 575.47 C503.46 550.26, 527.21 525.61, 576.19 469.53 M486.26 573.35 C519.09 535.93, 553.13 499.62, 574.40 468.98 M492.91 572.04 C532.13 535.00, 567.04 491.23, 588.85 470.52 M496.04 573.37 C529.69 534.20, 562.23 494.03, 587.14 471.22 M504.49 576.27 C533.56 544.07, 560.65 513.62, 599.70 471.03 M507.01 573.43 C525.64 548.18, 546.40 526.42, 597.45 470.18 M519.09 576.14 C538.77 548.88, 556.62 525.95, 606.82 470.89 M516.79 573.02 C547.89 535.59, 583.25 499.17, 608.12 471.07 M529.19 571.06 C556.61 541.46, 584.29 510.70, 615.60 470.89 M527.98 574.52 C559.99 535.95, 593.04 497.77, 618.69 469.21 M539.87 574.23 C573.99 534.48, 604.61 491.01, 631.16 468.31 M536.27 574.19 C572.55 531.58, 606.78 490.05, 629.18 470.31 M545.95 575.04 C577.01 540.77, 606.83 503.42, 638.90 470.42 M548.80 573.41 C574.11 545.15, 597.85 516.40, 637.84 468.70 M556.55 575.14 C578.68 546.65, 600.38 519.47, 650.32 472.73 M560.01 573.48 C587.29 542.58, 613.89 509.79, 650.30 471.36 M572.20 574.90 C592.11 544.20, 616.06 517.95, 662.16 469.46 M569.96 574.80 C600.34 537.94, 633.49 501.93, 658.86 470.13 M582.71 575.69 C608.45 543.15, 633.42 510.37, 668.96 471.59 M581.46 573.90 C599.98 550.59, 621.31 523.72, 669.35 469.52 M589.65 575.35 C613.55 551.38, 632.70 524.61, 681.53 470.07 M591.83 574.72 C613.39 547.04, 635.27 522.06, 679.86 471.63 M598.85 575.71 C630.21 541.40, 662.22 504.69, 680.91 483.17 M602.60 575.82 C630.12 540.11, 661.91 503.93, 681.92 482.30 M612.91 572.08 C634.92 549.66, 657.43 521.54, 680.42 496.23 M611.32 575.63 C633.94 548.76, 656.48 522.87, 679.85 493.59 M623.69 572.77 C646.14 545.65, 665.96 518.45, 683.33 508.42 M621.27 574.73 C635.38 560.05, 648.53 544.44, 680.62 507.27 M634.84 576.55 C647.62 554.48, 664.82 536.73, 679.15 516.87 M633.22 575.07 C652.07 553.69, 668.54 532.50, 680.42 519.73 M642.24 574.19 C654.62 561.08, 662.11 555.67, 683.52 530.96 M643.20 573.24 C654.19 560.69, 664.78 549.94, 679.79 531.02 M656.55 573.95 C667.51 560.77, 673.08 549.52, 679.30 546.81 M655.20 574.72 C662.09 566.53, 669.73 557.97, 680.98 544.05 M665.72 573.05 C669.50 565.96, 676.63 561.86, 683.16 553.24 M663.98 575.11 C669.50 570.73, 672.70 567.17, 681.78 556.36 M675.58 572.96 C677.54 572.63, 679.55 569.49, 680.83 567.39 M676.13 574.23 C676.33 572.35, 678.15 571.84, 681.30 568.21" fill="none" stroke="#ffec99" stroke-width="1"/>
    <path d="M477.48 467.80 C538.28 469.69, 599.11 473.13, 678.13 470.68 M479.67 468.75 C551.24 469.52, 622.83 471.84, 680.94 470.82 M680.92 469.32 C680.95 511.95, 679.12 547.75, 677.75 567.66 M679.43 471.25 C682.31 500.03, 680.34 529.56, 679.52 570.76 M680.73 572.11 C606.24 569.65, 528.88 566.41, 478.51 569.21 M678.95 569.28 C611.02 569.71, 541.08 571.24, 479.93 569.28 M477.57 567.88 C479.51 537.62, 480.43 504.05, 480.28 470.28 M479.95 569.42 C477.96 548.52, 477.69 529.35, 481.06 468.63" fill="none" stroke="#e67700" stroke-width="2"/>
  </g>
  <text x="580" y="508" text-anchor="middle" font-size="17" fill="#1e1e1e">BGE Reranker</text>
  <text x="580" y="528" text-anchor="middle" font-size="12" fill="#555">Cross Encoder</text>
  <text x="580" y="550" text-anchor="middle" font-size="11" fill="#e67700" font-weight="600">Re-ranking</text>
  <!-- Neo4j -->
  <g>
    <path d="M709.94 470.07 C709.94 470.07, 709.94 470.07, 709.94 470.07 M709.94 470.07 C709.94 470.07, 709.94 470.07, 709.94 470.07 M710.43 483.55 C714.65 480.95, 713.50 477.31, 721.89 468.21 M709.59 482.95 C712.81 477.79, 717.36 473.03, 719.58 470.93 M711.88 496.56 C713.43 490.43, 721.85 481.26, 731.60 471.02 M708.86 493.30 C717.65 487.57, 723.99 479.17, 731.72 470.95 M707.78 508.77 C718.25 496.15, 727.67 483.41, 742.17 471.30 M709.72 507.04 C718.33 495.08, 728.31 485.48, 740.35 470.69 M710.20 520.33 C721.19 504.89, 730.85 493.21, 751.42 468.48 M710.86 518.90 C722.99 503.89, 738.36 488.02, 751.13 470.53 M709.17 531.93 C718.44 519.70, 729.53 507.88, 761.12 469.93 M710.83 530.87 C724.47 514.51, 738.87 498.62, 764.06 469.91 M710.15 540.48 C738.58 512.06, 760.63 481.22, 775.93 470.80 M709.64 542.75 C726.57 524.36, 742.29 503.63, 772.37 469.96 M708.03 556.18 C732.73 529.11, 754.32 506.41, 784.18 470.34 M710.30 555.25 C731.62 529.10, 752.29 505.71, 785.69 469.77 M709.18 565.58 C730.30 543.87, 752.48 515.75, 792.49 470.21 M708.30 567.09 C732.54 541.59, 754.23 518.54, 796.18 468.79 M713.96 574.84 C748.33 536.15, 780.55 500.14, 806.47 466.78 M713.64 574.27 C740.65 542.76, 768.34 512.51, 804.72 469.15 M725.06 576.64 C744.91 549.45, 766.05 525.40, 817.43 467.46 M726.57 574.04 C755.08 538.73, 782.02 504.58, 817.04 469.04 M736.74 575.46 C761.63 541.46, 791.18 516.97, 825.06 471.00 M736.33 573.19 C758.28 550.29, 777.39 526.12, 827.90 470.98 M748.70 575.36 C765.76 546.97, 789.21 522.72, 836.08 471.82 M747.56 573.87 C779.34 537.79, 813.22 497.83, 838.22 469.23 M756.22 575.30 C780.93 549.60, 803.28 524.91, 850.32 471.05 M755.77 575.94 C791.81 536.70, 825.31 497.68, 847.59 470.86 M768.82 571.96 C791.35 549.86, 808.79 526.78, 856.03 471.86 M766.56 574.82 C798.02 541.88, 826.82 507.07, 859.07 471.10 M775.63 573.05 C803.83 544.59, 828.97 510.00, 866.59 470.26 M779.46 575.84 C795.63 552.95, 814.35 532.05, 868.38 469.17 M791.40 572.38 C817.86 537.92, 852.53 501.39, 879.86 468.42 M789.37 573.32 C822.39 531.28, 858.05 491.97, 880.70 470.64 M801.18 572.17 C834.69 538.08, 867.63 500.96, 888.19 467.73 M800.74 573.92 C828.01 538.82, 857.70 506.00, 891.17 469.50 M813.03 575.36 C833.62 547.06, 857.06 519.43, 901.11 473.12 M808.73 575.02 C836.29 545.49, 860.84 514.69, 902.01 471.55 M820.70 571.92 C844.55 545.39, 871.71 515.40, 913.39 468.11 M819.34 572.98 C850.58 538.97, 882.51 504.68, 912.10 470.45 M832.30 573.16 C852.36 546.28, 873.43 526.35, 907.82 482.19 M830.63 574.56 C856.08 546.33, 883.09 516.72, 911.16 483.13 M839.01 574.07 C867.04 547.00, 884.55 520.19, 911.45 497.45 M840.78 575.26 C868.78 544.49, 896.08 513.73, 909.57 496.46 M849.74 575.58 C865.10 554.34, 881.16 541.28, 911.44 504.07 M853.34 573.59 C872.16 551.28, 891.68 529.99, 911.56 505.79 M865.87 576.93 C878.43 558.24, 897.70 534.50, 910.92 518.08 M864.32 573.51 C882.55 552.28, 898.42 530.36, 911.61 518.70 M873.86 573.95 C883.51 560.55, 894.39 549.38, 912.28 534.65 M873.38 574.71 C886.38 558.28, 899.73 543.35, 911.23 530.38 M886.03 575.36 C894.24 566.51, 903.53 555.20, 911.97 542.96 M886.00 574.98 C891.35 568.02, 896.63 558.97, 911.14 542.45 M897.14 571.12 C899.38 567.52, 909.15 560.39, 913.74 557.43 M894.57 575.53 C898.21 569.13, 902.69 567.00, 910.10 556.31 M906.34 573.51 C907.11 572.42, 908.96 569.41, 910.11 568.35 M905.31 574.17 C907.45 571.55, 910.44 569.16, 911.56 567.70" fill="none" stroke="#a5d8ff" stroke-width="1"/>
    <path d="M708.52 469.38 C771.02 473.78, 829.92 472.95, 911.48 469.69 M710.33 470.17 C754.26 470.87, 797.20 470.83, 911.20 470.30 M911.93 468.23 C907.59 504.82, 910.89 544.63, 912.94 572.51 M908.87 469.00 C910.33 500.65, 910.35 533.42, 910.00 569.81 M911.92 568.17 C861.15 571.39, 812.02 571.96, 709.20 572.42 M909.98 570.87 C860.50 570.33, 811.86 569.67, 709.53 569.70 M708.44 569.18 C712.10 538.46, 713.37 503.13, 711.73 468.77 M708.76 570.59 C709.64 541.28, 709.16 511.09, 711.22 468.75" fill="none" stroke="#1971c2" stroke-width="2"/>
  </g>
  <text x="810" y="508" text-anchor="middle" font-size="17" fill="#1e1e1e">Neo4j</text>
  <text x="810" y="528" text-anchor="middle" font-size="12" fill="#555">Knowledge Graph</text>
  <text x="810" y="550" text-anchor="middle" font-size="11" fill="#1971c2" font-weight="600">Docker</text>
  <!-- Arrows: Graphiti → backends -->
  <g>
    <path d="M241.58 364.68 C198.14 398.25, 159.30 433.95, 121.17 466.36 M240.05 365.52 C196.12 405.33, 152.08 442.51, 120.44 468.12" fill="none" stroke="#e03131" stroke-width="2"/>
    <path d="M118.37 466.67 C122.21 463.92, 123.83 463.00, 125.36 455.20 M119.34 468.54 C120.87 465.57, 122.12 460.89, 125.84 454.95" fill="none" stroke="#e03131" stroke-width="2"/>
    <path d="M119.06 469.46 C124.24 465.00, 130.48 466.55, 134.81 464.61 M120.84 468.34 C124.75 466.83, 131.37 465.69, 133.07 463.74" fill="none" stroke="#e03131" stroke-width="2"/>
  </g>
  <g>
    <path d="M349.25 364.75 C350.65 391.89, 351.56 418.24, 349.07 466.69 M350.62 364.36 C349.15 397.21, 349.15 427.64, 350.02 467.93" fill="none" stroke="#2f9e44" stroke-width="2"/>
    <path d="M350.74 467.60 C347.55 462.59, 345.27 459.59, 342.68 454.93 M350.31 467.47 C349.05 464.96, 347.39 460.28, 343.40 455.17" fill="none" stroke="#2f9e44" stroke-width="2"/>
    <path d="M349.00 467.22 C352.51 462.79, 353.99 457.72, 357.31 454.82 M349.81 467.26 C351.97 464.17, 353.61 458.82, 355.54 454.83" fill="none" stroke="#2f9e44" stroke-width="2"/>
  </g>
  <g>
    <path d="M482.20 363.38 C516.93 400.83, 555.54 442.66, 579.27 470.00 M480.03 365.83 C507.26 393.82, 534.01 418.86, 580.26 468.12" fill="none" stroke="#e67700" stroke-width="2"/>
    <path d="M579.84 468.83 C576.53 465.41, 572.39 465.66, 568.50 462.50 M579.99 468.58 C576.74 466.99, 572.73 466.03, 567.69 463.33" fill="none" stroke="#e67700" stroke-width="2"/>
    <path d="M579.48 467.35 C578.09 464.25, 575.66 458.97, 575.19 454.78 M580.49 467.39 C579.15 463.25, 576.82 459.92, 575.48 455.29" fill="none" stroke="#e67700" stroke-width="2"/>
  </g>
  <g>
    <path d="M581.66 364.32 C648.81 391.84, 716.03 424.15, 808.72 468.69 M579.97 365.61 C644.24 396.09, 709.86 425.19, 810.58 468.77" fill="none" stroke="#1971c2" stroke-width="2"/>
    <path d="M808.62 467.60 C805.56 468.61, 803.90 469.26, 795.30 468.62 M809.27 467.39 C805.19 468.56, 799.68 468.76, 796.52 468.28" fill="none" stroke="#1971c2" stroke-width="2"/>
    <path d="M808.83 468.55 C809.59 465.83, 807.92 462.50, 799.47 455.90 M809.98 468.58 C806.96 462.96, 803.26 458.79, 801.25 457.73" fill="none" stroke="#1971c2" stroke-width="2"/>
  </g>
  </g>
</svg>
